<svg viewBox="0 0 16 16" fill="gray" stroke="none" stroke-width="1" stroke-linecap="round" stroke-linejoin="round" xmlns="http://www.w3.org/2000/svg">
	<path d="m8 4c-2.63 0-4.4 1.07-5.48 2.15-1.07 1.07-1.49 2.18-1.49 2.18a0.5 0.5 0 0 0 0.293 0.645 0.5 0.5 0 0 0 0.645-0.293s0.333-0.896 1.26-1.82c0.926-0.926 2.4-1.85 4.77-1.85 0.627 0 1.19 0.0667 1.7 0.18l0.813-0.812c-0.732-0.227-1.57-0.367-2.51-0.367zm5.22 1.9-0.707 0.707c0.0906 0.0811 0.178 0.162 0.26 0.244 0.926 0.926 1.26 1.82 1.26 1.82a0.5 0.5 0 0 0 0.645 0.293 0.5 0.5 0 0 0 0.293-0.645s-0.417-1.1-1.49-2.18c-0.0819-0.0819-0.17-0.163-0.26-0.244z"/>
	<path d="m8 6a3 3 0 0 0-3 3 3 3 0 0 0 0.105 0.773l3.67-3.67a3 3 0 0 0-0.775-0.104zm2.9 2.22-3.67 3.67a3 3 0 0 0 0.773 0.105 3 3 0 0 0 3-3 3 3 0 0 0-0.104-0.775z" fill="gray"/>
	<path d="m3.5 13.5 10-10" style="fill:none;stroke:gray;"/>
</svg>
