<svg version="1.1" viewBox="0 0 20 20" xmlns="http://www.w3.org/2000/svg" xmlns:xlink="http://www.w3.org/1999/xlink">
    <defs>
        <linearGradient id="gradient1" x1="1.99" x2="12.4" y1="16.7" y2="20" gradientTransform="translate(-.00586)" gradientUnits="userSpaceOnUse">
            <stop stop-color="#00b4df" offset="0"/>
            <stop stop-color="#407abf" offset="1"/>
        </linearGradient>
        <linearGradient id="gradient3" x1="17.4" x2="22" y1="7.82" y2="7.82" gradientUnits="userSpaceOnUse" xlink:href="#gradient4"/>
        <linearGradient id="gradient4">
            <stop stop-color="#b0deff" offset=".734"/>
            <stop stop-color="#53c6c8" offset="1"/>
        </linearGradient>
        <linearGradient id="gradient5" x1="5.98" x2="4.41" y1="4.84" y2="6.32" gradientUnits="userSpaceOnUse" xlink:href="#gradient4"/>
        <linearGradient id="gradient2" x1="7.03" x2="11.8" y1="17.9" y2="19.6" gradientTransform="translate(-.0358 .0022)" gradientUnits="userSpaceOnUse" spreadMethod="reflect" xlink:href="#gradient4"/>
    </defs>
    <path transform="matrix(.944 0 -.294 .765 .976 1.49)" d="m14.8 6.93-.0077 8.86h7.19l.0737-8.86z" fill="url(#gradient3)"/>
    <path transform="matrix(1.11 0 -.346 .9 -.109 -.294)" d="m9.59 3.25c-2.49-.084-4.97 1.65-5.56 4.1-.518 1.86-.328 3.97.727 5.62 1.06 1.56 2.95 2.55 4.84 2.5.126-6.68.108-6.68-.00542-12.2z" fill="url(#gradient5)"/>
    <path d="m7.6.0022-1.1 3 11.6.00625s.923-.386 1.18-1.33c0 0 .227-.697-.131-1.22-.358-.519-1.22-.458-1.22-.458z" fill="url(#gradient2)"/>
    <path transform="matrix(.944 0 -.294 .765 .895 1.7)" d="m14.8 6.93-.0077 8.86h7.19l.0737-8.86z" fill="#407cbf"/>
    <path transform="matrix(1.11 0 -.346 .9 -.203 0)" d="m9.59 3.25c-2.49-.084-4.97 1.65-5.56 4.1-.518 1.86-.328 3.97.727 5.62 1.06 1.56 2.95 2.55 4.84 2.5.126-6.68.108-6.68-.00542-12.2z" fill="#00b4df"/>
    <path d="m7.53.219-6.86 18.1s-.243.724.0875 1.2c.331.48.926.508.926.508h10.7l6.87-18.1s.227-.697-.131-1.22-1.22-.458-1.22-.458z" fill="url(#gradient1)"/>
    <path d="m8.93 4.1c-.987 0-1.96.177-2.9.533-.949.357-1.8.878-2.54 1.56-.746.684-1.31 1.52-1.69 2.5-.361.939-.448 1.75-.258 2.43.191.682.622 1.21 1.29 1.57.667.368 1.54.553 2.61.553.755 0 1.48-.0963 2.17-.285l-1.57 4.09h2.98l1.52-3.93h5.73l.75-1.95h-5.73l.408-1.07h5.74l.748-1.95h-10.7l-.749 1.95h1.96c-.502.787-1.48 1.06-2.41 1.04-2-.0281-1.76-1.42-1.38-2.49.28-.797.733-1.37 1.31-1.8s1.24-.644 1.99-.648c.923-.00512 1.49.395 1.38.957h3.02c.272-1.32-.224-2.08-1.46-2.67-.607-.291-1.33-.395-2.2-.395z" fill-opacity=".158"/>
    <path d="m9.01 3.85c-.987 0-1.96.177-2.9.533-.949.357-1.8.878-2.54 1.56-.746.684-1.31 1.52-1.69 2.5-.361.939-.448 1.75-.258 2.43.191.682.622 1.21 1.29 1.57.667.368 1.54.553 2.61.553.755 0 1.48-.0963 2.17-.285l-1.57 4.09h2.98l1.52-3.93h5.73l.75-1.95h-5.73l.408-1.07h5.74l.748-1.95h-10.7l-.749 1.95h1.96c-.502.787-1.48 1.06-2.41 1.04-2-.0281-1.76-1.42-1.38-2.49.28-.797.733-1.37 1.31-1.8s1.24-.644 1.99-.648c.923-.00512 1.49.395 1.38.957h3.02c.272-1.32-.224-2.08-1.46-2.67-.607-.291-1.33-.395-2.2-.395z" fill="#fff"/>
</svg>
